<?xml version="1.0" standalone="no"?><!DOCTYPE svg PUBLIC "-//W3C//DTD SVG 1.1//EN" "http://www.w3.org/Graphics/SVG/1.1/DTD/svg11.dtd"><svg t="1641697150382" class="icon" viewBox="0 0 1024 1024" version="1.1" xmlns="http://www.w3.org/2000/svg" p-id="2176" data-darkreader-inline-fill="" xmlns:xlink="http://www.w3.org/1999/xlink" width="200" height="200"><defs><style type="text/css"></style></defs><path d="M576.2048 229.7856l76.8-85.6064a31.9488 31.9488 0 0 0-23.808-53.3504H394.9056a32 32 0 0 0-23.8592 53.3504l76.288 84.8896a384 384 0 0 0-321.0752 378.4192v217.344A104.448 104.448 0 0 0 230.4 929.1264h558.6432a104.448 104.448 0 0 0 104.3456-104.2944v-217.344a384 384 0 0 0-317.184-377.7024z m-18.688-74.9568L512 205.4144l-45.4656-50.5856zM829.44 824.832a40.3456 40.3456 0 0 1-40.3456 40.2944H230.4a40.3456 40.3456 0 0 1-40.2944-40.2944v-217.344a319.5904 319.5904 0 1 1 639.1296 0z" fill="#ffffff" p-id="2177" style="--darkreader-inline-fill: #181a1b;" data-darkreader-inline-fill=""></path><path d="M536.2176 749.6192v36.1984a8.192 8.192 0 0 1-7.9872 7.9872H492.032a8.192 8.192 0 0 1-7.9872-7.9872v-34.048a315.8528 315.8528 0 0 1-52.1728-6.9632 8.0896 8.0896 0 0 1-7.4752-7.9872v-28.7232a7.6288 7.6288 0 0 1 7.4752-7.4752h1.0752c15.9744 2.1504 55.9104 4.2496 70.8096 4.2496 35.84 0 46.08-12.7488 46.08-36.1984 0-15.36-7.4752-23.3984-34.0992-39.3728l-52.736-31.4368c-37.2736-21.8112-47.36-45.2608-47.36-73.472 0-36.7616 18.0736-65.4848 68.1472-73.472v-33.5872A8.192 8.192 0 0 1 492.032 409.6h36.1984a8.192 8.192 0 0 1 7.9872 7.9872v31.9488a438.6304 438.6304 0 0 1 56.32 6.4c4.2496 1.0752 7.424 3.7376 7.424 7.4752v29.7984a6.8608 6.8608 0 0 1-6.912 7.4752h-1.0752c-26.624-2.6624-52.6848-4.2496-78.7968-4.2496C483.5328 496.1792 471.04 506.88 471.04 524.3904c0 13.312 6.9632 21.2992 33.024 35.84l47.9232 26.624c44.1856 24.4736 55.9104 50.0224 55.9104 81.92 0.2048 33.9968-17.8688 70.7072-71.68 80.8448z" fill="#ffffff" p-id="2178" style="--darkreader-inline-fill: #181a1b;" data-darkreader-inline-fill=""></path></svg>