<svg t="1637422776555" class="icon" viewBox="0 0 1024 1024" version="1.1" xmlns="http://www.w3.org/2000/svg" p-id="5128" data-darkreader-inline-fill="" width="200" height="200"><path d="M970.666667 213.333333H542.173333L429.793333 100.953333A52.986667 52.986667 0 0 0 392.08 85.333333H96a53.393333 53.393333 0 0 0-53.333333 53.333334v704a53.393333 53.393333 0 0 0 53.333333 53.333333h874.666667a53.393333 53.393333 0 0 0 53.333333-53.333333V266.666667a53.393333 53.393333 0 0 0-53.333333-53.333334zM96 128h296.08a10.573333 10.573333 0 0 1 7.54 3.126667L481.826667 213.333333H96a53.546667 53.546667 0 0 0-10.666667 1.073334V138.666667a10.666667 10.666667 0 0 1 10.666667-10.666667z m885.333333 714.666667a10.666667 10.666667 0 0 1-10.666666 10.666666H96a10.666667 10.666667 0 0 1-10.666667-10.666666V266.666667a10.666667 10.666667 0 0 1 10.666667-10.666667h874.666667a10.666667 10.666667 0 0 1 10.666666 10.666667z" fill="#5C5C66" p-id="5129" style="--darkreader-inline-fill: #494f52;" data-darkreader-inline-fill=""></path></svg>
