<?xml version="1.0" standalone="no"?><!DOCTYPE svg PUBLIC "-//W3C//DTD SVG 1.1//EN" "http://www.w3.org/Graphics/SVG/1.1/DTD/svg11.dtd"><svg t="1637423428111" class="icon" viewBox="0 0 1024 1024" version="1.1" xmlns="http://www.w3.org/2000/svg" p-id="8699" data-darkreader-inline-fill="" xmlns:xlink="http://www.w3.org/1999/xlink" width="200" height="200"><defs><style type="text/css"></style></defs><path d="M508.986319 849.043589A55.549475 55.549475 0 0 1 467.120585 830.7986L134.801145 454.658606a55.386573 55.386573 0 0 1 41.53993-92.039452h86.663698V55.875278A56.03818 56.03818 0 0 1 318.880051 0H678.892778a56.03818 56.03818 0 0 1 56.03818 55.875278v306.743876H841.794464a55.386573 55.386573 0 0 1 41.53993 92.039452L550.363347 830.7986a55.549475 55.549475 0 0 1-41.377028 18.570792zM176.341075 411.48966a6.027362 6.027362 0 0 0-5.86446 3.746738 6.190264 6.190264 0 0 0 0.97741 7.004773L504.099268 798.218263a5.864461 5.864461 0 0 0 9.774101 0l332.645244-375.977092a6.190264 6.190264 0 0 0 0.97741-7.004773 6.027362 6.027362 0 0 0-5.864461-3.746738h-131.135857a24.435253 24.435253 0 0 1-24.435253-24.435253V55.875278A7.167674 7.167674 0 0 0 678.892778 48.870506H318.880051a7.004773 7.004773 0 0 0-7.004773 7.004772v331.179129a24.435253 24.435253 0 0 1-24.435253 24.435253z" fill="#3D3D3D" p-id="8700" style="--darkreader-inline-fill: #2e3234;" data-darkreader-inline-fill=""></path><path d="M882.682787 1024H141.317213a32.580337 32.580337 0 0 1 0-65.160675h741.365574a32.580337 32.580337 0 1 1 0 65.160675z" fill="#F683A2" p-id="8701" style="--darkreader-inline-fill: #7a0927;" data-darkreader-inline-fill=""></path></svg>